<mxfile host="app.diagrams.net" modified="2023-11-13T01:17:35.850Z" agent="Mozilla/5.0 (Windows NT 10.0; Win64; x64; rv:109.0) Gecko/20100101 Firefox/116.0" etag="8691BxszS9Qs8wtG80GS" version="22.1.0" type="github">
  <diagram id="C5RBs43oDa-KdzZeNtuy" name="Page-1">
    <mxGraphModel dx="838" dy="484" grid="1" gridSize="10" guides="1" tooltips="1" connect="1" arrows="1" fold="1" page="1" pageScale="1" pageWidth="827" pageHeight="1169" math="0" shadow="0">
      <root>
        <mxCell id="WIyWlLk6GJQsqaUBKTNV-0" />
        <mxCell id="WIyWlLk6GJQsqaUBKTNV-1" parent="WIyWlLk6GJQsqaUBKTNV-0" />
        <mxCell id="NSOrYsdDgKN3ndRTMI-3-2" style="edgeStyle=orthogonalEdgeStyle;rounded=0;orthogonalLoop=1;jettySize=auto;html=1;entryX=0.5;entryY=0;entryDx=0;entryDy=0;" parent="WIyWlLk6GJQsqaUBKTNV-1" source="NSOrYsdDgKN3ndRTMI-3-0" target="NSOrYsdDgKN3ndRTMI-3-1" edge="1">
          <mxGeometry relative="1" as="geometry" />
        </mxCell>
        <mxCell id="NSOrYsdDgKN3ndRTMI-3-0" value="start" style="ellipse;whiteSpace=wrap;html=1;" parent="WIyWlLk6GJQsqaUBKTNV-1" vertex="1">
          <mxGeometry x="310" y="40" width="120" height="80" as="geometry" />
        </mxCell>
        <mxCell id="NSOrYsdDgKN3ndRTMI-3-1" value="a,b,c" style="shape=parallelogram;perimeter=parallelogramPerimeter;whiteSpace=wrap;html=1;fixedSize=1;" parent="WIyWlLk6GJQsqaUBKTNV-1" vertex="1">
          <mxGeometry x="310" y="200" width="120" height="60" as="geometry" />
        </mxCell>
        <mxCell id="NSOrYsdDgKN3ndRTMI-3-9" style="edgeStyle=orthogonalEdgeStyle;rounded=0;orthogonalLoop=1;jettySize=auto;html=1;entryX=0.5;entryY=0;entryDx=0;entryDy=0;" parent="WIyWlLk6GJQsqaUBKTNV-1" source="NSOrYsdDgKN3ndRTMI-3-5" target="NSOrYsdDgKN3ndRTMI-3-8" edge="1">
          <mxGeometry relative="1" as="geometry" />
        </mxCell>
        <mxCell id="NSOrYsdDgKN3ndRTMI-3-5" value="delta=b^2-4ac" style="shape=parallelogram;perimeter=parallelogramPerimeter;whiteSpace=wrap;html=1;fixedSize=1;" parent="WIyWlLk6GJQsqaUBKTNV-1" vertex="1">
          <mxGeometry x="335" y="400" width="190" height="100" as="geometry" />
        </mxCell>
        <mxCell id="NSOrYsdDgKN3ndRTMI-3-7" style="edgeStyle=orthogonalEdgeStyle;rounded=0;orthogonalLoop=1;jettySize=auto;html=1;entryX=0;entryY=0.5;entryDx=0;entryDy=0;" parent="WIyWlLk6GJQsqaUBKTNV-1" source="NSOrYsdDgKN3ndRTMI-3-1" target="uI2aNk6RP5Es9ZvrghqI-0" edge="1">
          <mxGeometry relative="1" as="geometry" />
        </mxCell>
        <mxCell id="NSOrYsdDgKN3ndRTMI-3-11" style="edgeStyle=orthogonalEdgeStyle;rounded=0;orthogonalLoop=1;jettySize=auto;html=1;entryX=0.5;entryY=0;entryDx=0;entryDy=0;" parent="WIyWlLk6GJQsqaUBKTNV-1" source="NSOrYsdDgKN3ndRTMI-3-8" target="NSOrYsdDgKN3ndRTMI-3-10" edge="1">
          <mxGeometry relative="1" as="geometry" />
        </mxCell>
        <mxCell id="NSOrYsdDgKN3ndRTMI-3-14" style="edgeStyle=orthogonalEdgeStyle;rounded=0;orthogonalLoop=1;jettySize=auto;html=1;entryX=0.5;entryY=0;entryDx=0;entryDy=0;" parent="WIyWlLk6GJQsqaUBKTNV-1" source="NSOrYsdDgKN3ndRTMI-3-8" target="NSOrYsdDgKN3ndRTMI-3-12" edge="1">
          <mxGeometry relative="1" as="geometry" />
        </mxCell>
        <mxCell id="NSOrYsdDgKN3ndRTMI-3-15" style="edgeStyle=orthogonalEdgeStyle;rounded=0;orthogonalLoop=1;jettySize=auto;html=1;entryX=0.5;entryY=0;entryDx=0;entryDy=0;" parent="WIyWlLk6GJQsqaUBKTNV-1" source="NSOrYsdDgKN3ndRTMI-3-8" target="NSOrYsdDgKN3ndRTMI-3-13" edge="1">
          <mxGeometry relative="1" as="geometry" />
        </mxCell>
        <mxCell id="NSOrYsdDgKN3ndRTMI-3-8" value="delta=?" style="rhombus;whiteSpace=wrap;html=1;" parent="WIyWlLk6GJQsqaUBKTNV-1" vertex="1">
          <mxGeometry x="335" y="550" width="136" height="104.5" as="geometry" />
        </mxCell>
        <mxCell id="NSOrYsdDgKN3ndRTMI-3-20" style="edgeStyle=orthogonalEdgeStyle;rounded=0;orthogonalLoop=1;jettySize=auto;html=1;entryX=0.5;entryY=0;entryDx=0;entryDy=0;" parent="WIyWlLk6GJQsqaUBKTNV-1" source="NSOrYsdDgKN3ndRTMI-3-10" target="NSOrYsdDgKN3ndRTMI-3-19" edge="1">
          <mxGeometry relative="1" as="geometry" />
        </mxCell>
        <mxCell id="NSOrYsdDgKN3ndRTMI-3-10" value="delta=0" style="rhombus;whiteSpace=wrap;html=1;" parent="WIyWlLk6GJQsqaUBKTNV-1" vertex="1">
          <mxGeometry x="340" y="720" width="140" height="110" as="geometry" />
        </mxCell>
        <mxCell id="NSOrYsdDgKN3ndRTMI-3-24" style="edgeStyle=orthogonalEdgeStyle;rounded=0;orthogonalLoop=1;jettySize=auto;html=1;" parent="WIyWlLk6GJQsqaUBKTNV-1" source="NSOrYsdDgKN3ndRTMI-3-12" target="NSOrYsdDgKN3ndRTMI-3-21" edge="1">
          <mxGeometry relative="1" as="geometry" />
        </mxCell>
        <mxCell id="NSOrYsdDgKN3ndRTMI-3-12" value="delta&amp;lt;0" style="rhombus;whiteSpace=wrap;html=1;" parent="WIyWlLk6GJQsqaUBKTNV-1" vertex="1">
          <mxGeometry x="110" y="720" width="130" height="120" as="geometry" />
        </mxCell>
        <mxCell id="NSOrYsdDgKN3ndRTMI-3-26" style="edgeStyle=orthogonalEdgeStyle;rounded=0;orthogonalLoop=1;jettySize=auto;html=1;entryX=0.5;entryY=0;entryDx=0;entryDy=0;" parent="WIyWlLk6GJQsqaUBKTNV-1" source="NSOrYsdDgKN3ndRTMI-3-13" target="NSOrYsdDgKN3ndRTMI-3-25" edge="1">
          <mxGeometry relative="1" as="geometry" />
        </mxCell>
        <mxCell id="NSOrYsdDgKN3ndRTMI-3-13" value="delta&amp;gt;0" style="rhombus;whiteSpace=wrap;html=1;" parent="WIyWlLk6GJQsqaUBKTNV-1" vertex="1">
          <mxGeometry x="600" y="700" width="140" height="120" as="geometry" />
        </mxCell>
        <mxCell id="NSOrYsdDgKN3ndRTMI-3-29" style="edgeStyle=orthogonalEdgeStyle;rounded=0;orthogonalLoop=1;jettySize=auto;html=1;" parent="WIyWlLk6GJQsqaUBKTNV-1" source="NSOrYsdDgKN3ndRTMI-3-19" target="NSOrYsdDgKN3ndRTMI-3-27" edge="1">
          <mxGeometry relative="1" as="geometry" />
        </mxCell>
        <mxCell id="NSOrYsdDgKN3ndRTMI-3-19" value="x1=x2=-b/2a" style="shape=parallelogram;perimeter=parallelogramPerimeter;whiteSpace=wrap;html=1;fixedSize=1;" parent="WIyWlLk6GJQsqaUBKTNV-1" vertex="1">
          <mxGeometry x="340" y="920" width="180" height="90" as="geometry" />
        </mxCell>
        <mxCell id="NSOrYsdDgKN3ndRTMI-3-28" style="edgeStyle=orthogonalEdgeStyle;rounded=0;orthogonalLoop=1;jettySize=auto;html=1;entryX=0;entryY=0.5;entryDx=0;entryDy=0;" parent="WIyWlLk6GJQsqaUBKTNV-1" source="NSOrYsdDgKN3ndRTMI-3-21" target="NSOrYsdDgKN3ndRTMI-3-27" edge="1">
          <mxGeometry relative="1" as="geometry" />
        </mxCell>
        <mxCell id="NSOrYsdDgKN3ndRTMI-3-21" value="pt vo nghiem" style="rounded=0;whiteSpace=wrap;html=1;" parent="WIyWlLk6GJQsqaUBKTNV-1" vertex="1">
          <mxGeometry x="70" y="960" width="120" height="60" as="geometry" />
        </mxCell>
        <mxCell id="NSOrYsdDgKN3ndRTMI-3-30" style="edgeStyle=orthogonalEdgeStyle;rounded=0;orthogonalLoop=1;jettySize=auto;html=1;entryX=1;entryY=0.5;entryDx=0;entryDy=0;" parent="WIyWlLk6GJQsqaUBKTNV-1" source="NSOrYsdDgKN3ndRTMI-3-25" target="NSOrYsdDgKN3ndRTMI-3-27" edge="1">
          <mxGeometry relative="1" as="geometry" />
        </mxCell>
        <mxCell id="NSOrYsdDgKN3ndRTMI-3-25" value="&lt;div&gt;x1=(-b+sqrt(delta))/2a&lt;/div&gt;&lt;div&gt;x2=(-b-sqrt(delta))/2a&lt;/div&gt;" style="shape=parallelogram;perimeter=parallelogramPerimeter;whiteSpace=wrap;html=1;fixedSize=1;" parent="WIyWlLk6GJQsqaUBKTNV-1" vertex="1">
          <mxGeometry x="620" y="920" width="170" height="85" as="geometry" />
        </mxCell>
        <mxCell id="NSOrYsdDgKN3ndRTMI-3-27" value="end" style="ellipse;whiteSpace=wrap;html=1;" parent="WIyWlLk6GJQsqaUBKTNV-1" vertex="1">
          <mxGeometry x="370" y="1100" width="120" height="80" as="geometry" />
        </mxCell>
        <mxCell id="uI2aNk6RP5Es9ZvrghqI-4" style="edgeStyle=orthogonalEdgeStyle;rounded=0;orthogonalLoop=1;jettySize=auto;html=1;" edge="1" parent="WIyWlLk6GJQsqaUBKTNV-1" source="uI2aNk6RP5Es9ZvrghqI-0" target="uI2aNk6RP5Es9ZvrghqI-3">
          <mxGeometry relative="1" as="geometry" />
        </mxCell>
        <mxCell id="uI2aNk6RP5Es9ZvrghqI-6" value="true" style="edgeLabel;html=1;align=center;verticalAlign=middle;resizable=0;points=[];" vertex="1" connectable="0" parent="uI2aNk6RP5Es9ZvrghqI-4">
          <mxGeometry x="-0.1989" y="-4" relative="1" as="geometry">
            <mxPoint as="offset" />
          </mxGeometry>
        </mxCell>
        <mxCell id="uI2aNk6RP5Es9ZvrghqI-0" value="a==0" style="rhombus;whiteSpace=wrap;html=1;" vertex="1" parent="WIyWlLk6GJQsqaUBKTNV-1">
          <mxGeometry x="500" y="220" width="80" height="80" as="geometry" />
        </mxCell>
        <mxCell id="uI2aNk6RP5Es9ZvrghqI-1" value="false" style="edgeStyle=orthogonalEdgeStyle;rounded=0;orthogonalLoop=1;jettySize=auto;html=1;entryX=0.616;entryY=-0.05;entryDx=0;entryDy=0;entryPerimeter=0;" edge="1" parent="WIyWlLk6GJQsqaUBKTNV-1" source="uI2aNk6RP5Es9ZvrghqI-0" target="NSOrYsdDgKN3ndRTMI-3-5">
          <mxGeometry relative="1" as="geometry" />
        </mxCell>
        <mxCell id="uI2aNk6RP5Es9ZvrghqI-5" style="edgeStyle=orthogonalEdgeStyle;rounded=0;orthogonalLoop=1;jettySize=auto;html=1;entryX=1;entryY=0;entryDx=0;entryDy=0;" edge="1" parent="WIyWlLk6GJQsqaUBKTNV-1" source="uI2aNk6RP5Es9ZvrghqI-3" target="NSOrYsdDgKN3ndRTMI-3-27">
          <mxGeometry relative="1" as="geometry">
            <Array as="points">
              <mxPoint x="1090" y="230" />
              <mxPoint x="1090" y="1112" />
            </Array>
          </mxGeometry>
        </mxCell>
        <mxCell id="uI2aNk6RP5Es9ZvrghqI-3" value="x=-c/b" style="shape=parallelogram;perimeter=parallelogramPerimeter;whiteSpace=wrap;html=1;fixedSize=1;" vertex="1" parent="WIyWlLk6GJQsqaUBKTNV-1">
          <mxGeometry x="720" y="200" width="120" height="60" as="geometry" />
        </mxCell>
      </root>
    </mxGraphModel>
  </diagram>
</mxfile>
